<?xml version="1.0" encoding="UTF-8"?>
<svg id="Layer_1" data-name="Layer 1" xmlns="http://www.w3.org/2000/svg" xmlns:xlink="http://www.w3.org/1999/xlink" viewBox="0 0 372 372">
  <defs>
    <style>
      .cls-1 {
        fill: #77b0aa;
      }

      .cls-1, .cls-2, .cls-3 {
        stroke-width: 0px;
      }

      .cls-3 {
        fill: none;
      }

      .cls-4 {
        clip-path: url(#clippath);
      }
    </style>
    <clipPath id="clippath">
      <rect class="cls-3" x="78.72" y="82" width="214.02" height="208"/>
    </clipPath>
  </defs>
  <circle class="cls-1" cx="186" cy="186" r="186"/>
  <g class="cls-4">
    <path class="cls-2" d="m98.07,125.33c2.73,0,4.93,2.18,4.93,4.88s-2.21,4.88-4.93,4.88-4.93-2.18-4.93-4.88,2.2-4.88,4.93-4.88"/>
    <path class="cls-2" d="m249.86,97.19c2.72,0,4.93,2.18,4.93,4.88s-2.21,4.88-4.93,4.88-4.94-2.18-4.94-4.88,2.21-4.88,4.94-4.88"/>
    <path class="cls-2" d="m188,275.37c2.73,0,4.93,2.18,4.93,4.88s-2.21,4.88-4.93,4.88-4.93-2.18-4.93-4.88,2.2-4.88,4.93-4.88"/>
    <path class="cls-2" d="m83.65,280.25c2.73,0,4.93,2.18,4.93,4.88s-2.2,4.88-4.93,4.88-4.93-2.18-4.93-4.88,2.21-4.88,4.93-4.88"/>
    <path class="cls-2" d="m107.56,275.37c2.72,0,4.93,2.18,4.93,4.88s-2.21,4.88-4.93,4.88-4.93-2.18-4.93-4.88,2.21-4.88,4.93-4.88"/>
    <path class="cls-2" d="m278.32,266c2.72,0,4.93,2.18,4.93,4.88s-2.21,4.88-4.93,4.88-4.94-2.18-4.94-4.88,2.21-4.88,4.94-4.88"/>
    <path class="cls-2" d="m229.75,282.87c.38-.38-2.28,1.5,46.29-27.76,1.52-.75,2.28-2.25,2.28-4.13v-55.89c-.38-1.13-1.14-2.25-2.28-3-2.66-1.5-40.6-24.38-43.26-25.88v-53.27c-.38-1.13-1.13-2.25-2.27-3-32.63-19.51-26.19-15.75-45.54-27.38-1.52-.75-3.41-.75-4.93,0,0,0-48.57,29.26-45.54,27.38-1.52.75-2.27,2.25-2.27,4.13v52.14s-43.64,26.26-43.26,25.88c-1.52.75-2.28,2.25-2.28,3.75v54.77c0,1.5.76,3,2.28,4.13,48.95,29.26,45.92,27.38,46.3,27.76.38,0,.76.38,1.14.38h1.52c.76,0,1.14-.38,1.52-.75.38,0,34.53-20.63,43.26-25.88,45.91,27.38,43.26,26.26,44.02,26.26.38,0,.76.38,1.14.38h1.14c-.38.38.38,0,.76,0m-93.35-108.78c.76.38-3.03-1.88,36.43,22.13l-36.43,22.13-36.43-22.13,36.43-22.13Zm40.98-30.01v43.89c-.76-.38-35.67-21.38-36.05-21.76v-43.89l36.05,21.76Zm45.53,22.13l-36.05,21.76v-43.89l36.05-21.76v43.89Zm-81.96,60.02l36.04-21.76v43.89l-36.04,21.76v-43.89Zm86.89-52.14l36.43,22.13-36.43,22.13-36.43-21.76c.76-.75,36.05-22.13,36.43-22.51m4.55,96.03v-43.89l36.05-21.76v43.89l-36.05,21.76Zm-50.47-178.18l36.43,22.13-36.43,21.76-36.43-21.76,36.43-22.13Zm-86.52,112.53l36.05,21.76v43.89l-36.05-21.76v-43.89Zm91.45,0l36.05,21.76v43.89l-36.05-21.76v-43.89Z"/>
    <path class="cls-2" d="m276.04,116.32c-9.11,0-16.7,7.5-16.7,16.5s7.59,16.5,16.7,16.5,16.7-7.5,16.7-16.5c-.38-9.38-7.59-16.5-16.7-16.5m0,23.26c-3.8,0-7.21-3-7.21-7.13s3.04-7.13,7.21-7.13,7.21,3,7.21,7.13-3.41,7.13-7.21,7.13"/>
    <path class="cls-2" d="m98.07,111.45c7.97,0,14.42-6.38,14.42-14.25s-6.45-14.26-14.42-14.26-14.42,6.38-14.42,14.26,6.45,14.25,14.42,14.25m0-18.76c2.66,0,4.93,2.25,4.93,4.88s-2.28,4.88-4.93,4.88-4.93-2.25-4.93-4.88,2.27-4.88,4.93-4.88"/>
  </g>
</svg>