<?xml version="1.0" encoding="UTF-8"?>
<svg id="Layer_1" data-name="Layer 1" xmlns="http://www.w3.org/2000/svg" xmlns:xlink="http://www.w3.org/1999/xlink" viewBox="0 0 372 372">
  <defs>
    <style>
      .cls-1 {
        fill: #77b0aa;
      }

      .cls-1, .cls-2, .cls-3 {
        stroke-width: 0px;
      }

      .cls-3 {
        fill: none;
      }

      .cls-4 {
        clip-path: url(#clippath);
      }
    </style>
    <clipPath id="clippath">
      <rect class="cls-3" x="74.43" y="74" width="223.55" height="223"/>
    </clipPath>
  </defs>
  <circle class="cls-1" cx="186" cy="186" r="186"/>
  <g class="cls-4">
    <path class="cls-2" d="m269.12,230.3l-13.41-20.49c3.25-5.63,5.69-11.25,7.31-17.68l23.98-5.22c2.44-.4,4.07-2.41,4.07-4.82v-18.08c0-2.41-1.63-4.42-4.07-4.82l-23.98-5.22c-1.62-6.03-4.06-12.05-7.31-17.68l13.41-20.49c1.22-2.01.81-4.42-.81-6.43l-13.01-12.86c-1.63-1.61-4.47-2.01-6.51-.8l-20.73,13.26c-5.69-3.21-11.38-5.63-17.88-7.23l-5.28-23.71c-.41-2.41-2.44-4.02-4.88-4.02h-18.29c-2.44,0-4.47,1.61-4.88,4.02l-4.88,23.71c-6.1,1.61-12.19,4.02-17.88,7.23l-20.73-13.26c-2.03-1.21-4.47-.8-6.5.8l-13.01,12.86c-1.62,1.61-2.03,4.42-.81,6.43l13.41,20.49c-3.25,5.63-5.69,11.25-7.31,17.68l-23.98,5.22c-2.44.4-4.07,2.41-4.07,4.82v18.08c0,2.41,1.63,4.42,4.07,4.82l23.98,5.22c1.62,6.03,4.06,12.05,7.31,17.68l-13.41,20.49c-1.22,2.01-.81,4.42.81,6.43l13.01,12.86c1.62,1.61,4.47,2.01,6.5.8l23.57-14.87c2.44-1.61,3.25-4.42,1.63-6.83-1.63-2.41-4.47-3.21-6.91-1.61l-20.33,12.46-6.91-7.23,12.6-20.09c1.22-1.61,1.22-3.62,0-5.22-4.07-6.03-6.91-12.86-8.53-20.09-.41-2.01-2.03-3.21-3.66-3.62l-23.17-5.22v-10.05l23.17-5.22c2.03-.4,3.25-2.01,3.66-3.62,1.62-7.23,4.47-14.06,8.53-20.09,1.22-1.61,1.22-3.62,0-5.22l-12.6-19.69,6.91-6.83,19.92,12.46c1.62,1.21,3.66,1.21,5.28,0,6.1-4.02,13.01-6.83,20.32-8.44,2.03-.4,3.25-2.01,3.66-3.62l5.29-22.9h10.57l5.28,22.9c.41,2.01,2.03,3.21,3.66,3.62,7.31,1.61,14.22,4.42,20.32,8.44,1.63,1.21,3.66,1.21,5.28,0l20.32-12.46,6.91,6.83-12.6,19.69c-1.22,1.61-1.22,3.62,0,5.22,4.07,6.43,6.91,13.26,8.53,20.09.41,2.01,2.03,3.21,3.66,3.62l23.17,5.22v10.05l-23.17,5.22c-2.03.4-3.25,2.01-3.66,3.62-1.62,7.23-4.47,14.06-8.53,20.09-1.22,1.61-1.22,3.62,0,5.22l12.6,20.09-7.32,7.23-20.32-12.46c-2.44-1.61-5.69-.8-6.91,1.61-1.62,2.41-.81,5.63,1.63,6.83l23.57,14.87c2.03,1.21,4.47.8,6.51-.8l13.01-12.86c2.03-2.01,2.03-4.82.81-6.43"/>
    <path class="cls-2" d="m246.36,172.84c0-30.14-24.8-54.24-54.87-54.24s-54.87,24.51-54.87,54.24c0,20.09,11.38,38.57,29.67,48.22v50.63c0,13.66,11.38,25.31,25.61,25.31s25.61-11.25,25.61-25.31v-50.63c17.07-9.64,28.86-28.13,28.86-48.22m-36.99,40.18c-1.63.8-2.84,2.41-2.84,4.42v54.24c0,8.44-6.91,15.27-15.45,15.27s-15.04-6.83-15.04-15.27v-53.84c0-2.01-1.22-3.62-2.84-4.42-16.26-7.23-26.42-22.9-26.42-40.18,0-24.51,19.91-44.2,44.71-44.2s44.71,19.69,44.71,44.2c0,16.88-10.57,32.95-26.82,39.78"/>
    <path class="cls-2" d="m191.49,138.69c-19.11,0-34.55,15.27-34.55,34.15s15.45,34.15,34.55,34.15,34.55-15.27,34.55-34.15-15.45-34.15-34.55-34.15m0,58.26c-13.41,0-24.39-10.85-24.39-24.11s10.97-24.11,24.39-24.11,24.39,10.85,24.39,24.11-10.97,24.11-24.39,24.11"/>
    <path class="cls-2" d="m198.4,164.01l-10.98,10.85-3.25-3.62c-2.03-2.01-5.28-2.01-7.31,0-2.03,2.01-2.03,5.22,0,7.23l7.31,7.23c2.03,2.01,5.28,2.01,7.32,0l14.23-14.06c2.03-2.01,2.03-5.22,0-7.23-2.03-2.41-5.28-2.41-7.32-.4"/>
    <path class="cls-2" d="m94.75,246.37c-11.38,0-20.32,8.84-20.32,20.09s8.94,20.09,20.32,20.09,20.33-8.84,20.33-20.09-8.94-20.09-20.33-20.09m0,30.14c-5.69,0-10.16-4.42-10.16-10.05s4.47-10.05,10.16-10.05,10.16,4.42,10.16,10.05-4.47,10.05-10.16,10.05"/>
    <path class="cls-2" d="m280.09,261.64c-9.76,0-17.88,8.04-17.88,17.68s8.13,17.68,17.88,17.68,17.88-8.04,17.88-17.68-8.13-17.68-17.88-17.68m0,24.91c-4.07,0-7.72-3.21-7.72-7.63s3.25-7.63,7.72-7.63,7.72,3.21,7.72,7.63-3.25,7.63-7.72,7.63"/>
    <path class="cls-2" d="m89.47,125.83c8.53,0,15.45-6.83,15.45-15.27s-6.91-15.27-15.45-15.27-15.04,7.23-15.04,15.67,6.91,14.87,15.04,14.87m0-20.09c2.84,0,5.28,2.41,5.28,5.22s-2.43,5.22-5.28,5.22-5.28-2.41-5.28-5.22,2.84-5.22,5.28-5.22"/>
    <path class="cls-2" d="m155.72,80.43c2.92,0,5.28,2.34,5.28,5.22s-2.36,5.22-5.28,5.22-5.28-2.34-5.28-5.22,2.36-5.22,5.28-5.22"/>
    <path class="cls-2" d="m277.65,80.43c2.92,0,5.28,2.34,5.28,5.22s-2.36,5.22-5.28,5.22-5.28-2.34-5.28-5.22,2.36-5.22,5.28-5.22"/>
    <path class="cls-2" d="m287.82,130.65c2.92,0,5.28,2.34,5.28,5.22s-2.36,5.22-5.28,5.22-5.28-2.34-5.28-5.22,2.36-5.22,5.28-5.22"/>
    <path class="cls-2" d="m287.82,221.06c2.92,0,5.28,2.34,5.28,5.22s-2.36,5.22-5.28,5.22-5.28-2.34-5.28-5.22,2.36-5.22,5.28-5.22"/>
    <path class="cls-2" d="m130.11,266.46c2.92,0,5.28,2.34,5.28,5.22s-2.36,5.22-5.28,5.22-5.28-2.34-5.28-5.22,2.36-5.22,5.28-5.22"/>
    <path class="cls-2" d="m94.75,206.19c2.92,0,5.28,2.34,5.28,5.22s-2.36,5.22-5.28,5.22-5.28-2.34-5.28-5.22,2.36-5.22,5.28-5.22"/>
  </g>
</svg>