<?xml version="1.0" encoding="UTF-8"?>
<svg id="Layer_2" data-name="Layer 2" xmlns="http://www.w3.org/2000/svg" xmlns:xlink="http://www.w3.org/1999/xlink" viewBox="0 0 374.2 374.2">
  <defs>
    <style>
      .cls-1 {
        fill: #77b0aa;
      }

      .cls-1, .cls-2, .cls-3 {
        stroke-width: 0px;
      }

      .cls-3 {
        fill: none;
      }

      .cls-4 {
        clip-path: url(#clippath);
      }
    </style>
    <clipPath id="clippath">
      <rect class="cls-3" x="86.79" y="78.55" width="198.33" height="214.65"/>
    </clipPath>
  </defs>
  <circle class="cls-1" cx="187.1" cy="187.1" r="187.1"/>
  <g class="cls-4">
    <path class="cls-2" d="m128.45,78.55h-36.87c-2.58,0-4.79,2.19-4.79,4.74v169.09c0,.73.37,1.09.37,1.46.37.73,14.74,25.51,18.43,32.07.74,1.46,2.21,2.18,4.06,2.18s3.32-.73,4.06-2.18c3.68-6.56,18.43-31.71,18.43-32.07.37-.73.74-1.46.74-2.19V83.29c0-2.55-1.84-4.74-4.42-4.74m-14.01,153.06v-107.51h9.22v116.62l-9.22-9.11Zm-18.43-121.35h27.65v4.74h-27.65v-4.74Zm0,13.85h9.22v107.51l-9.22,9.11v-116.62Zm27.65-22.59h-27.65v-13.85h27.65v13.85Zm-13.64,173.1l-12.53-21.87,12.53-12.39,12.53,12.39-12.53,21.87Z"/>
    <path class="cls-2" d="m188.17,78.55h-41.29c-2.58,0-4.79,2.19-4.79,4.74v200.43c0,2.55,2.21,4.74,4.79,4.74h41.66c2.58,0,4.79-2.19,4.79-4.74V83.29c-.37-2.55-2.58-4.74-5.16-4.74m-4.42,200.43h-32.44v-9.11h9.22c2.58,0,4.79-2.19,4.79-4.74s-2.21-4.74-4.79-4.74h-9.22v-4.73h14.01c2.58,0,4.79-2.19,4.79-4.74s-2.21-4.74-4.79-4.74h-14.01v-4.74h9.22c2.58,0,4.79-2.18,4.79-4.74s-2.21-4.73-4.79-4.73h-9.22v-4.74h14.01c2.58,0,4.79-2.19,4.79-4.74s-2.21-4.74-4.79-4.74h-14.01v-4.74h9.22c2.58,0,4.79-2.18,4.79-4.73s-2.21-4.74-4.79-4.74h-9.22v-4.74h14.01c2.58,0,4.79-2.19,4.79-4.74s-2.21-4.74-4.79-4.74h-14.01v-4.73h9.22c2.58,0,4.79-2.19,4.79-4.74s-2.21-4.74-4.79-4.74h-9.22v-4.74h14.01c2.58,0,4.79-2.18,4.79-4.74s-2.21-4.73-4.79-4.73h-14.01v-4.74h9.22c2.58,0,4.79-2.19,4.79-4.74s-2.21-4.74-4.79-4.74h-9.22v-4.74h14.01c2.58,0,4.79-2.18,4.79-4.73s-2.21-4.74-4.79-4.74h-14.01v-4.74h9.22c2.58,0,4.79-2.19,4.79-4.74s-2.21-4.74-4.79-4.74h-9.22v-4.73h14.01c2.58,0,4.79-2.19,4.79-4.74s-2.21-4.74-4.79-4.74h-14.01v-4.74h9.22c2.58,0,4.79-2.18,4.79-4.74s-2.21-4.73-4.79-4.73h-9.22v-9.11h32.44v198.24Z"/>
    <path class="cls-2" d="m280.33,192.62h-32.44v-8.75c0-10.2-8.48-18.59-18.8-18.59h-13.64c-2.58,0-4.79-2.19-4.79-4.74s2.21-4.74,4.79-4.74h50.87c7.74,0,14.01-6.2,14.01-13.85s-6.27-13.85-14.01-13.85h-45.35c-5.16,0-9.58-4.37-9.58-9.48v-4.37c0-2.55-2.21-4.74-4.79-4.74s-4.79,2.19-4.79,4.74v4.37c0,10.2,8.48,18.59,18.8,18.59h45.71c2.58,0,4.79,2.19,4.79,4.74s-2.21,4.74-4.79,4.74h-50.51c-7.74,0-14.01,6.2-14.01,13.85s6.27,13.85,14.01,13.85h13.64c5.16,0,9.58,4.37,9.58,9.48v8.75h-32.44c-2.58,0-4.79,2.19-4.79,4.74v54.66c0,22.59,18.43,41.18,41.66,41.18s41.66-18.22,41.66-41.18v-54.66c0-2.92-2.21-4.74-4.79-4.74m-4.42,59.04c0,17.49-14.38,32.07-32.44,32.07s-32.44-14.21-32.44-32.07v-49.93h27.65v10.2c-4.06,1.82-7,5.83-7,10.57v18.22c0,6.2,5.16,11.3,11.43,11.3s11.43-5.1,11.43-11.3v-18.22c0-4.74-2.95-8.75-7-10.57v-10.2h27.65v49.93h.74Zm-29.86-29.52v18.22c0,1.09-1.1,2.19-2.21,2.19s-2.21-1.09-2.21-2.19v-18.22c0-1.09,1.11-2.19,2.21-2.19s2.21,1.09,2.21,2.19"/>
    <path class="cls-2" d="m261.9,114.99c7.74,0,14.01-6.19,14.01-13.85s-6.27-13.85-14.01-13.85-14.01,6.2-14.01,13.85c.37,7.66,6.64,13.85,14.01,13.85m0-18.22c2.58,0,4.79,2.19,4.79,4.74s-2.21,4.74-4.79,4.74-4.79-2.19-4.79-4.74,2.21-4.74,4.79-4.74"/>
    <path class="cls-2" d="m206.6,96.77c2.65,0,4.79,2.12,4.79,4.74s-2.15,4.74-4.79,4.74-4.79-2.12-4.79-4.74,2.14-4.74,4.79-4.74"/>
    <path class="cls-2" d="m229.82,110.25c2.65,0,4.79,2.12,4.79,4.74s-2.15,4.74-4.79,4.74-4.79-2.12-4.79-4.74,2.14-4.74,4.79-4.74"/>
    <path class="cls-2" d="m271.11,169.65c2.65,0,4.79,2.12,4.79,4.74s-2.15,4.74-4.79,4.74-4.79-2.12-4.79-4.74,2.15-4.74,4.79-4.74"/>
  </g>
</svg>